<svg aria-hidden="true" style="position: absolute; width: 0; height: 0; overflow: hidden;" version="1.1" xmlns="http://www.w3.org/2000/svg" xmlns:xlink="http://www.w3.org/1999/xlink">
<defs>
<symbol id="icon-search" viewBox="0 0 24 24"><path d="M17.5 9C16.12 9 15 7.88 15 6.5S16.12 4 17.5 4 20 5.12 20 6.5 18.88 9 17.5 9M14.43 8.15L2 20.59L3.41 22L15.85 9.57C15.25 9.24 14.76 8.75 14.43 8.15M13 5L13.63 3.63L15 3L13.63 2.37L13 1L12.38 2.37L11 3L12.38 3.63L13 5M21 5L21.63 3.63L23 3L21.63 2.37L21 1L20.38 2.37L19 3L20.38 3.63L21 5M21 9L20.38 10.37L19 11L20.38 11.63L21 13L21.63 11.63L23 11L21.63 10.37L21 9Z"></path>
</symbol>

<symbol id="icon-arena" viewBox="0 0 30 30">
<path d="M7 5L3 7V3L7 5M18 3V7L22 5L18 3M11 2V6L15 4L11 2M5 10C6.4 10.5 8.8 11 12 11S17.6 10.5 19 10C19 9.8 16.2 9 12 9S5 9.9 5 10M15 17H9V21.9C4.9 21.5 2 20.4 2 19V10C2 8.3 6.5 7 12 7S22 8.3 22 10V19C22 20.3 19.1 21.5 15 21.9V17Z" ></path>
</symbol>

<symbol id="icon-loader" viewBox="0 0 24 24">
<path d="M11 2v4c0 0.552 0.448 1 1 1s1-0.448 1-1v-4c0-0.552-0.448-1-1-1s-1 0.448-1 1zM11 18v4c0 0.552 0.448 1 1 1s1-0.448 1-1v-4c0-0.552-0.448-1-1-1s-1 0.448-1 1zM4.223 5.637l2.83 2.83c0.391 0.391 1.024 0.391 1.414 0s0.391-1.024 0-1.414l-2.83-2.83c-0.391-0.391-1.024-0.391-1.414 0s-0.391 1.024 0 1.414zM15.533 16.947l2.83 2.83c0.391 0.391 1.024 0.391 1.414 0s0.391-1.024 0-1.414l-2.83-2.83c-0.391-0.391-1.024-0.391-1.414 0s-0.391 1.024 0 1.414zM2 13h4c0.552 0 1-0.448 1-1s-0.448-1-1-1h-4c-0.552 0-1 0.448-1 1s0.448 1 1 1zM18 13h4c0.552 0 1-0.448 1-1s-0.448-1-1-1h-4c-0.552 0-1 0.448-1 1s0.448 1 1 1zM5.637 19.777l2.83-2.83c0.391-0.391 0.391-1.024 0-1.414s-1.024-0.391-1.414 0l-2.83 2.83c-0.391 0.391-0.391 1.024 0 1.414s1.024 0.391 1.414 0zM16.947 8.467l2.83-2.83c0.391-0.391 0.391-1.024 0-1.414s-1.024-0.391-1.414 0l-2.83 2.83c-0.391 0.391-0.391 1.024 0 1.414s1.024 0.391 1.414 0z"></path>
</symbol>


<symbol id="icon-error" width="50px" height="50px" viewBox="0 0 32 32" version="1.1" xmlns="http://www.w3.org/2000/svg" xmlns:xlink="http://www.w3.org/1999/xlink" xmlns:sketch="http://www.bohemiancoding.com/sketch/ns">
    <g id="Page-1" stroke="none" stroke-width="1" fill="none" fill-rule="evenodd" sketch:type="MSPage">
        <g id="icon-131-cloud-error" sketch:type="MSArtboardGroup" fill="#000000">
            <path d="M22.4615385,22 L25.0005601,22 C27.7616745,22 30,19.7558048 30,17 C30,14.9035809 28.7132907,13.1085075 26.8828633,12.3655101 L26.8828633,12.3655101 C26.3600217,9.87224935 24.1486546,8 21.5,8 C20.6371017,8 19.8206159,8.19871575 19.0938083,8.55288165 C17.8911816,6.43144875 15.6127573,5 13,5 C9.13400656,5 6,8.13400656 6,12 C6,12.1381509 6.00400207,12.275367 6.01189661,12.4115388 L6.01189661,12.4115388 C4.23965876,13.1816085 3,14.9491311 3,17 C3,19.7614237 5.23249418,22 7.99943992,22 L10.5384615,22 L16.5,12 L22.4615385,22 L22.4615385,22 L22.4615385,22 Z M16.5,14 L23,25 L10,25 L16.5,14 L16.5,14 Z M16,18 L16,21 L17,21 L17,18 L16,18 L16,18 Z M16,22 L16,23 L17,23 L17,22 L16,22 L16,22 Z" id="cloud-error" sketch:type="MSShapeGroup"></path>
        </g>
    </g>
</symbol>

<symbol id="icon-earth" viewBox="0 0 30 30"><path d="M17.9,17.39C17.64,16.59 16.89,16 16,16H15V13A1,1 0 0,0 14,12H8V10H10A1,1 0 0,0 11,9V7H13A2,2 0 0,0 15,5V4.59C17.93,5.77 20,8.64 20,12C20,14.08 19.2,15.97 17.9,17.39M11,19.93C7.05,19.44 4,16.08 4,12C4,11.38 4.08,10.78 4.21,10.21L9,15V16A2,2 0 0,0 11,18M12,2A10,10 0 0,0 2,12A10,10 0 0,0 12,22A10,10 0 0,0 22,12A10,10 0 0,0 12,2Z" /></symbol>


<symbol id="icon-money" viewBox="0 0 30 30"><path d="M7,15H9C9,16.08 10.37,17 12,17C13.63,17 15,16.08 15,15C15,13.9 13.96,13.5 11.76,12.97C9.64,12.44 7,11.78 7,9C7,7.21 8.47,5.69 10.5,5.18V3H13.5V5.18C15.53,5.69 17,7.21 17,9H15C15,7.92 13.63,7 12,7C10.37,7 9,7.92 9,9C9,10.1 10.04,10.5 12.24,11.03C14.36,11.56 17,12.22 17,15C17,16.79 15.53,18.31 13.5,18.82V21H10.5V18.82C8.47,18.31 7,16.79 7,15Z" /></symbol>


<symbol id="icon-city" viewBox="0 0 30 30"><path d="M15.19 21C14.12 19.43 13 17.36 13 15.5C13 13.67 13.96 12 15.4 11H15V9H17V10.23C17.5 10.09 18 10 18.5 10C18.67 10 18.84 10 19 10.03V3H5V21H11V17.5H13V21H15.19M15 5H17V7H15V5M9 19H7V17H9V19M9 15H7V13H9V15M9 11H7V9H9V11M9 7H7V5H9V7M11 5H13V7H11V5M11 9H13V11H11V9M11 15V13H13V15H11M18.5 12C16.6 12 15 13.61 15 15.5C15 18.11 18.5 22 18.5 22S22 18.11 22 15.5C22 13.61 20.4 12 18.5 12M18.5 16.81C17.8 16.81 17.3 16.21 17.3 15.61C17.3 14.91 17.9 14.41 18.5 14.41S19.7 15 19.7 15.61C19.8 16.21 19.2 16.81 18.5 16.81Z" /></symbol>

<symbol id="icon-calendar" viewBox="0 0 30 30"><path d="M5 9H19V11.1L21 12.8V5C21 3.9 20.1 3 19 3H18V1H16V3H8V1H6V3H5C3.9 3 3 3.9 3 5V19C3 20.1 3.9 21 5 21H13V19H5V9M19 5V7H5V5H19M7 16V11H12V16H7M22.9 17.7C22.8 17.8 22.7 17.9 22.6 17.9L20.7 18.3L22 21.1C22.2 21.4 22 21.7 21.7 21.9L19.6 22.9C19.4 23 19.4 23 19.3 23C19.1 23 18.9 22.9 18.8 22.7L17.5 19.9L16 21C15.9 21.1 15.8 21.1 15.6 21.1C15.3 21.1 15 20.8 15 20.5V11.5C15 11.2 15.3 10.9 15.6 10.9C15.7 10.9 15.9 11 16 11L22.8 16.8C23 17.1 23.1 17.5 22.9 17.7Z" /></symbol>


<symbol id="icon-type" viewBox="0 0 30 30"><path d="M14.53 1.45L13.45 2.53L15.05 4.13C15.27 4.38 15.38 4.67 15.38 5S15.27 5.64 15.05 5.86L11.5 9.47L12.5 10.55L16.13 6.94C16.66 6.35 16.92 5.7 16.92 5C16.92 4.3 16.66 3.64 16.13 3.05L14.53 1.45M10.55 3.47L9.47 4.55L10.08 5.11C10.3 5.33 10.41 5.63 10.41 6S10.3 6.67 10.08 6.89L9.47 7.45L10.55 8.53L11.11 7.92C11.64 7.33 11.91 6.69 11.91 6C11.91 5.28 11.64 4.63 11.11 4.03L10.55 3.47M21 5.06C20.31 5.06 19.67 5.33 19.08 5.86L13.45 11.5L14.53 12.5L20.11 6.94C20.36 6.69 20.66 6.56 21 6.56S21.64 6.69 21.89 6.94L22.5 7.55L23.53 6.47L22.97 5.86C22.38 5.33 21.72 5.06 21 5.06M7 8L2 22L16 17L7 8M19 11.06C18.3 11.06 17.66 11.33 17.06 11.86L15.47 13.45L16.55 14.53L18.14 12.94C18.39 12.69 18.67 12.56 19 12.56C19.33 12.56 19.63 12.69 19.88 12.94L21.5 14.53L22.55 13.5L20.95 11.86C20.36 11.33 19.7 11.06 19 11.06Z"/></symbol>


<symbol id="icon-arrowleft" viewBox="0 0 24 24"><path d="M7,12L12,7V10H16V14H12V17L7,12M22,12A10,10 0 0,1 12,22A10,10 0 0,1 2,12A10,10 0 0,1 12,2A10,10 0 0,1 22,12M20,12A8,8 0 0,0 12,4A8,8 0 0,0 4,12A8,8 0 0,0 12,20A8,8 0 0,0 20,12Z"/></symbol>

<symbol id="icon-arrowright" viewBox="0 0 24 24"><path d="M17,12L12,17V14H8V10H12V7L17,12M2,12A10,10 0 0,1 12,2A10,10 0 0,1 22,12A10,10 0 0,1 12,22A10,10 0 0,1 2,12M4,12A8,8 0 0,0 12,20A8,8 0 0,0 20,12A8,8 0 0,0 12,4A8,8 0 0,0 4,12Z"/></symbol>

<symbol id="world-share" viewBox="0 0 24 24"><path d="M16.36,14C16.44,13.34 16.5,12.68 16.5,12C16.5,11.32 16.44,10.66 16.36,10H19.74C19.9,10.64 20,11.31 20,12C20,12.69 19.9,13.36 19.74,14M14.59,19.56C15.19,18.45 15.65,17.25 15.97,16H18.92C17.96,17.65 16.43,18.93 14.59,19.56M14.34,14H9.66C9.56,13.34 9.5,12.68 9.5,12C9.5,11.32 9.56,10.65 9.66,10H14.34C14.43,10.65 14.5,11.32 14.5,12C14.5,12.68 14.43,13.34 14.34,14M12,19.96C11.17,18.76 10.5,17.43 10.09,16H13.91C13.5,17.43 12.83,18.76 12,19.96M8,8H5.08C6.03,6.34 7.57,5.06 9.4,4.44C8.8,5.55 8.35,6.75 8,8M5.08,16H8C8.35,17.25 8.8,18.45 9.4,19.56C7.57,18.93 6.03,17.65 5.08,16M4.26,14C4.1,13.36 4,12.69 4,12C4,11.31 4.1,10.64 4.26,10H7.64C7.56,10.66 7.5,11.32 7.5,12C7.5,12.68 7.56,13.34 7.64,14M12,4.03C12.83,5.23 13.5,6.57 13.91,8H10.09C10.5,6.57 11.17,5.23 12,4.03M18.92,8H15.97C15.65,6.75 15.19,5.55 14.59,4.44C16.43,5.07 17.96,6.34 18.92,8M12,2C6.47,2 2,6.5 2,12A10,10 0 0,0 12,22A10,10 0 0,0 22,12A10,10 0 0,0 12,2Z">
</symbol>


</defs>
</svg>

